<svg width="361" height="360" viewBox="0 0 361 360" fill="none" xmlns="http://www.w3.org/2000/svg">
<g clip-path="url(#clip0_7013_7501)">
<path d="M261.394 141.575C245.199 108.554 223.135 80.7705 199.326 63.3128C176.557 46.6723 154.53 41.2864 136.515 47.5266C134.715 47.8562 132.949 48.3535 131.241 49.0122C127.044 50.7951 111.963 57.5553 108.137 59.4497C71.6991 77.316 69.7679 148.076 103.829 217.498C137.89 286.92 195.017 328.93 231.419 310.878C236.359 308.426 247.873 303.932 253.705 301.035C254.039 301.035 254.411 300.812 254.745 300.626C273.577 291.414 284.46 269.351 285.277 238.521C286.057 209.029 277.551 174.671 261.394 141.575Z" fill="url(#paint0_linear_7013_7501)"/>
<path d="M251.328 293.791C235.988 301.22 215.447 296.614 193.495 280.568C170.466 263.704 148.922 236.663 133.247 204.385C117.573 172.107 109.141 138.64 109.921 110.114C110.664 82.9242 119.504 63.8322 134.882 56.2919C150.26 48.7517 170.763 53.469 192.715 69.5152C215.744 86.3786 237.288 113.42 252.963 145.698C268.229 176.824 276.475 209.103 276.326 236.961C276.326 237.964 276.326 238.966 276.326 239.969C275.546 267.159 266.632 286.102 251.328 293.791Z" fill="white"/>
<path d="M178.303 97.2246C171.58 100.53 173.957 120.588 183.132 149.226C166.083 124.451 151.708 110.299 144.985 113.568C133.136 119.399 151.448 180.984 185.843 251.001L195.389 246.321C163.445 181.17 142.868 125.751 149.442 122.52C156.016 119.288 185.249 165.421 214.741 225.594L224.25 220.914C194.758 160.778 176.186 109.482 182.761 106.176C189.335 102.87 220.573 153.163 252.517 218.314L262.026 213.634C227.63 143.617 190.152 91.4301 178.303 97.2246Z" fill="#FFBC0D"/>
</g>
<defs>
<linearGradient id="paint0_linear_7013_7501" x1="250.065" y1="111.526" x2="114.452" y2="247.176" gradientUnits="userSpaceOnUse">
<stop stop-color="#910063"/>
<stop offset="0.04" stop-color="#990059"/>
<stop offset="0.17" stop-color="#B60035"/>
<stop offset="0.3" stop-color="#CA001C"/>
<stop offset="0.42" stop-color="#D7000C"/>
<stop offset="0.51" stop-color="#DB0007"/>
<stop offset="1" stop-color="#E8720A"/>
</linearGradient>
<clipPath id="clip0_7013_7501">
<rect width="205.778" height="270" fill="white" transform="translate(79.5 45)"/>
</clipPath>
</defs>
</svg>
