<svg width="361" height="360" viewBox="0 0 361 360" fill="none" xmlns="http://www.w3.org/2000/svg">
<path d="M297.876 109.045C294.64 104.48 291.994 99.632 288.347 94.9435C287.453 93.8069 286.505 92.7058 285.54 91.658C270.092 72.4065 245.187 61.8573 214.864 61.875C183.362 61.875 149.66 73.3122 119.963 94.0733C58.5492 136.998 33.4651 207.131 63.6626 250.909C63.7162 250.998 63.7341 251.14 63.7877 251.211C68.0072 257.622 69.2587 259.362 73.7463 265.703C104.373 308.947 179.375 308.93 241.272 265.667C303.168 222.405 328.503 152.289 297.876 109.045Z" fill="url(#paint0_linear_7013_7513)"/>
<path d="M124.987 101.159C153.218 81.4284 185.132 70.5595 214.864 70.5417C233.834 70.5417 250.408 74.9817 263.388 83.3287C270.36 87.8042 276.278 93.4162 280.998 100.076C294.497 119.114 296.499 144.617 286.648 171.878C276.6 199.672 255.521 225.832 227.29 245.581C169.47 286.002 99.4918 286.481 71.2968 246.664C43.0839 206.847 67.1846 141.58 125.005 101.159H124.987Z" fill="white"/>
<path d="M217.922 117.036C223.857 125.099 182.646 160.263 127.007 196.297L135.035 207.61C190.942 171.736 241.897 149.714 247.726 157.706C253.518 165.68 207.605 202.655 146.46 241.158L154.273 252.329C220.496 211.109 266.945 166.87 256.486 152.502C250.497 144.297 228.774 146.89 199.989 157.759C221.783 137.318 232.654 120.002 226.539 111.744C215.74 97.1631 154.058 119.256 90.3198 162.057L98.5084 173.459C157.92 133.855 211.986 108.973 217.939 117.054L217.922 117.036Z" fill="#FFBC0D"/>
<defs>
<linearGradient id="paint0_linear_7013_7513" x1="228.992" y1="273.811" x2="133.139" y2="84.9827" gradientUnits="userSpaceOnUse">
<stop stop-color="#910063"/>
<stop offset="0.04" stop-color="#990058"/>
<stop offset="0.17" stop-color="#B50035"/>
<stop offset="0.3" stop-color="#CA001B"/>
<stop offset="0.42" stop-color="#D6000C"/>
<stop offset="0.51" stop-color="#DB0007"/>
<stop offset="1" stop-color="#E8720A"/>
</linearGradient>
</defs>
</svg>
