<svg width="361" height="360" viewBox="0 0 361 360" fill="none" xmlns="http://www.w3.org/2000/svg">
<g clip-path="url(#clip0_7013_7507)">
<path d="M180.75 315C154.048 315.007 127.944 307.095 105.739 292.265C83.5335 277.435 66.2246 256.353 56.0015 231.686C45.7784 207.019 43.1001 179.873 48.3052 153.684C53.5104 127.494 66.3654 103.436 85.2441 84.5527C104.123 65.6692 128.177 52.8083 154.366 47.5966C180.554 42.3848 207.7 45.0562 232.37 55.273C257.04 65.4898 278.126 82.7931 292.962 104.995C307.797 127.196 315.716 153.298 315.716 180C315.679 215.787 301.449 250.099 276.147 275.407C250.845 300.716 216.537 314.955 180.75 315V315Z" fill="url(#paint0_linear_7013_7507)"/>
<path d="M180.75 58.3938C156.69 58.3938 133.171 65.5288 113.167 78.8963C93.1623 92.2638 77.5711 111.263 68.3655 133.492C59.1599 155.721 56.7529 180.181 61.4492 203.777C66.1455 227.374 77.7343 249.048 94.7494 266.059C111.764 283.069 133.442 294.651 157.04 299.341C180.638 304.031 205.097 301.617 227.323 292.405C249.549 283.193 268.545 267.597 281.907 247.589C295.268 227.581 302.397 204.059 302.39 180C302.354 147.753 289.525 116.838 266.72 94.0393C243.915 71.2406 212.996 58.4209 180.75 58.3938V58.3938Z" fill="white"/>
<path d="M213.757 108.964C200.431 108.964 188.541 126.732 180.75 154.476C172.994 126.732 161.103 108.964 147.777 108.964C124.338 108.964 105.34 168.041 105.34 240.923H124.372C124.372 173.269 134.93 118.394 147.948 118.394C160.967 118.394 171.525 169.032 171.525 231.492H190.352C190.352 169.032 200.91 118.394 213.928 118.394C226.946 118.394 237.504 173.269 237.504 240.923H256.365C256.194 168.041 237.128 108.964 213.757 108.964Z" fill="#FFBC0D"/>
</g>
<defs>
<linearGradient id="paint0_linear_7013_7507" x1="315.75" y1="180" x2="45.7837" y2="180" gradientUnits="userSpaceOnUse">
<stop stop-color="#910063"/>
<stop offset="0.04" stop-color="#990059"/>
<stop offset="0.17" stop-color="#B60035"/>
<stop offset="0.3" stop-color="#CA001C"/>
<stop offset="0.42" stop-color="#D7000C"/>
<stop offset="0.51" stop-color="#DB0007"/>
<stop offset="1" stop-color="#E8720A"/>
</linearGradient>
<clipPath id="clip0_7013_7507">
<rect width="270" height="270" fill="white" transform="translate(45.7842 45)"/>
</clipPath>
</defs>
</svg>
