<svg width="188" height="103" viewBox="0 0 188 103" fill="none" xmlns="http://www.w3.org/2000/svg">
<g clip-path="url(#clip0_516_2087)">
<path d="M23.0492 89.8494C22.0488 89.8494 21.7987 90.0081 21.5754 90.7835L19.1012 98.8661C18.9047 99.523 18.9694 99.6415 19.5098 99.6415H21.5218C22.5222 99.6415 22.8103 99.3778 23.7571 97.6795L24.0988 97.7845L22.8751 100.102H16.7051L16.7966 99.8247C17.7837 99.8247 18.0338 99.6661 18.2705 98.8906L20.7559 90.7812C20.9926 90.0058 21.0328 89.8472 19.847 89.8472L19.9252 89.5701H23.1207L23.0425 89.8472L23.0492 89.8494Z" fill="white"/>
<path d="M25.8783 90.2182C25.8783 89.8092 26.2333 89.5076 26.6554 89.5076C27.0372 89.5076 27.3521 89.7578 27.3521 90.2584C27.3521 91.1411 26.5884 91.8785 25.55 92.4439L25.4316 92.2204C26.0502 91.8651 26.8385 91.1925 26.8385 90.6271C26.8385 90.5489 26.8117 90.5221 26.7737 90.5221C26.6688 90.5221 26.5504 90.7076 26.3003 90.7076C26.077 90.7076 25.8783 90.5221 25.8783 90.2204V90.2182Z" fill="white"/>
<path d="M29.904 97.3397H30.1675C29.4953 99.0514 28.4838 100.276 27.327 100.276C26.4584 100.276 25.9336 99.6056 25.9336 98.4861C25.9336 96.3788 27.7357 93.009 29.5646 93.009C30.1831 93.009 30.565 93.4314 30.565 94.0481C30.565 95.4179 28.7763 96.8526 26.9072 97.1542C26.7889 97.628 26.7219 98.0883 26.7219 98.457C26.7219 99.2592 27.0903 99.695 27.6419 99.695C28.4704 99.695 29.272 98.7073 29.904 97.3397ZM26.9965 96.7855C28.5351 96.4436 29.9174 95.3509 29.9174 94.0481C29.9174 93.666 29.8124 93.4157 29.444 93.4157C28.4324 93.4157 27.4588 95.1654 26.9965 96.7855Z" fill="white"/>
<path d="M30.4863 98.9332C30.4863 98.6427 30.6583 98.4862 30.8816 98.4862C31.0915 98.4862 31.1451 98.6449 31.25 98.9734C31.4331 99.5387 31.7502 99.894 32.3956 99.894C33.1057 99.894 33.4608 99.3533 33.4608 98.6427C33.4608 98.1823 33.2888 97.8136 33.0142 97.3667L32.6189 96.6829C32.1321 95.8807 31.8954 95.4315 31.8954 94.8528C31.8954 93.76 32.7775 92.9846 33.856 92.9846C34.7515 92.9846 35.2629 93.6036 35.2629 94.0237C35.2629 94.3008 35.0664 94.4572 34.8676 94.4572C34.6577 94.4572 34.5773 94.274 34.4992 94.0349C34.354 93.6528 34.1575 93.3511 33.6059 93.3511C32.9874 93.3511 32.5675 93.76 32.5675 94.484C32.5675 94.9176 32.7507 95.3913 33.0544 95.8919L33.4362 96.5622C33.9364 97.4315 34.1329 97.76 34.1329 98.3142C34.1329 99.4717 33.3179 100.276 32.2259 100.276C31.1339 100.276 30.4886 99.579 30.4886 98.9332H30.4863Z" fill="white"/>
<path d="M34.8398 98.9332C34.8398 98.6427 35.0118 98.4862 35.2351 98.4862C35.445 98.4862 35.4986 98.6449 35.6036 98.9734C35.7867 99.5387 36.1038 99.894 36.7491 99.894C37.4592 99.894 37.8143 99.3533 37.8143 98.6427C37.8143 98.1823 37.6423 97.8136 37.3677 97.3667L36.9724 96.6829C36.4856 95.8807 36.2489 95.4315 36.2489 94.8528C36.2489 93.76 37.131 92.9846 38.2095 92.9846C39.105 92.9846 39.6164 93.6036 39.6164 94.0237C39.6164 94.3008 39.4199 94.4572 39.2211 94.4572C39.0112 94.4572 38.9308 94.274 38.8527 94.0349C38.7075 93.6528 38.511 93.3511 37.9594 93.3511C37.3409 93.3511 36.9211 93.76 36.9211 94.484C36.9211 94.9176 37.1042 95.3913 37.4079 95.8919L37.7897 96.5622C38.2899 97.4315 38.4864 97.76 38.4864 98.3142C38.4864 99.4717 37.6714 100.276 36.5794 100.276C35.4874 100.276 34.8421 99.579 34.8421 98.9332H34.8398Z" fill="white"/>
<path d="M43.4567 97.3397H43.7202C43.0503 99.0514 42.0365 100.276 40.8798 100.276C40.0111 100.276 39.4863 99.6056 39.4863 98.4861C39.4863 96.3788 41.2884 93.009 43.1173 93.009C43.7359 93.009 44.1177 93.4314 44.1177 94.0481C44.1177 95.4179 42.329 96.8526 40.4599 97.1542C40.3416 97.628 40.2746 98.0883 40.2746 98.457C40.2746 99.2592 40.6431 99.695 41.1946 99.695C42.0231 99.695 42.8248 98.7073 43.4567 97.3397ZM40.5493 96.7855C42.0879 96.4436 43.4701 95.3509 43.4701 94.0481C43.4701 93.666 43.3652 93.4157 42.9967 93.4157C41.9829 93.4157 41.0093 95.1654 40.5493 96.7855ZM43.7582 91.8895H43.4433L41.668 89.5476H42.6015L43.7582 91.8895Z" fill="white"/>
<path d="M44.4986 100.104L46.3543 94.7073C46.4726 94.3654 46.6178 93.9319 46.6178 93.7733C46.6178 93.5766 46.5374 93.523 46.419 93.523C45.9724 93.523 45.3003 94.3789 44.8537 95.1677H44.5768C45.1172 94.1286 46.0104 93.0358 46.8389 93.0358C47.1805 93.0358 47.3525 93.3129 47.3525 93.628C47.3525 93.9051 47.2207 94.2604 47.0622 94.7073L46.1935 97.1028H46.2985C47.7455 94.0481 48.7727 93.009 49.6391 93.009C50.1259 93.009 50.3894 93.3241 50.3894 93.8247C50.3894 94.904 49.2841 96.9978 48.5874 98.6961C48.5204 98.8928 48.402 99.1833 48.402 99.3531C48.402 99.5497 48.4556 99.6816 48.6655 99.6816C49.2037 99.6816 49.8111 98.7721 50.2577 97.7732H50.5346C50.0746 98.9062 49.2461 100.182 48.3507 100.182C47.837 100.182 47.6539 99.8916 47.6539 99.4984C47.6539 99.2615 47.7723 98.971 47.8906 98.6827C48.6276 96.7878 49.5744 94.8124 49.5744 94.1018C49.5744 93.7733 49.4828 93.6146 49.2573 93.6146C48.6387 93.6146 47.1783 95.1945 45.2445 100.104H44.4941H44.4986Z" fill="white"/>
<path d="M51.0625 98.341C51.0625 95.9835 52.8646 92.9824 54.6019 92.9824C55.1669 92.9824 55.5889 93.3511 55.5889 94.0215C55.5889 94.6919 55.1937 95.4695 54.7605 95.4695C54.5372 95.4695 54.4054 95.2841 54.4054 95.074C54.4054 94.5869 55.1155 94.5869 55.1155 93.9031C55.1155 93.6662 54.9838 93.4159 54.5506 93.4159C53.0767 93.4159 51.853 96.3522 51.853 98.2069C51.853 99.0628 52.1031 99.6818 52.6815 99.6818C53.4318 99.6818 54.2335 98.7611 54.8386 97.5366H55.0887C54.3786 99.2483 53.3916 100.274 52.418 100.274C51.5493 100.274 51.0625 99.5097 51.0625 98.3388V98.341Z" fill="white"/>
<path d="M57.7323 94.7075C57.8507 94.3522 57.9958 93.9321 57.9958 93.7735C57.9958 93.5768 57.9177 93.5232 57.7993 93.5232C57.3527 93.5232 56.6805 94.379 56.2339 95.1679H55.957C56.4952 94.1288 57.3907 93.036 58.2191 93.036C58.5608 93.036 58.7327 93.3131 58.7327 93.6282C58.7327 93.9053 58.6278 94.274 58.4558 94.7209L57.0624 98.6963C56.9976 98.893 56.8905 99.1834 56.8905 99.3533C56.8905 99.5499 56.944 99.6818 57.154 99.6818C57.6944 99.6818 58.2973 98.7723 58.7461 97.7734H59.023C58.563 98.9064 57.7346 100.182 56.8391 100.182C56.3255 100.182 56.1424 99.8918 56.1424 99.4985C56.1424 99.2617 56.2473 98.9712 56.3523 98.6829L57.7346 94.7075H57.7323ZM58.362 90.7969C58.362 90.4014 58.6256 90.1646 59.0208 90.1646C59.4161 90.1646 59.6528 90.4014 59.6528 90.7969C59.6528 91.1925 59.4027 91.4293 59.0208 91.4293C58.6389 91.4293 58.362 91.1791 58.362 90.7969Z" fill="white"/>
<path d="M65.2189 97.7734H65.4958C65.0358 98.9063 64.194 100.182 63.2985 100.182C62.7849 100.182 62.6018 99.8918 62.6018 99.4985C62.6018 99.2616 62.7335 98.9711 62.8385 98.6829L63.5888 96.6159H63.4704C62.8251 98.0103 61.4852 100.223 60.4178 100.223C59.6675 100.223 59.4062 99.5901 59.4062 98.6963C59.4062 96.446 61.4986 93.0092 63.2471 93.0092C64.0242 93.0092 64.3927 93.5746 64.3257 94.4438H64.3659L64.7612 93.3511C65.0515 93.3511 65.3261 93.179 65.4713 92.9556L65.6164 93.0204L63.5508 98.6941C63.4861 98.8907 63.3677 99.1812 63.3677 99.351C63.3677 99.5477 63.4213 99.6795 63.6312 99.6795C64.1716 99.6795 64.7634 98.77 65.2234 97.7712L65.2189 97.7734ZM63.6 95.8136C63.7451 95.4181 63.9014 94.9444 63.9014 94.417C63.9014 93.865 63.7317 93.4963 63.2561 93.4963C61.9006 93.4963 60.1789 96.5622 60.1789 98.6047C60.1789 99.2371 60.2972 99.5924 60.6389 99.5924C61.5076 99.5924 63.0729 97.2751 63.5977 95.8136H63.6Z" fill="white"/>
<path d="M74.4411 97.7733H74.718C74.258 98.9063 73.4161 100.182 72.5206 100.182C72.007 100.182 71.8239 99.8917 71.8239 99.4984C71.8239 99.2616 71.9289 98.9711 72.0204 98.6828L72.7038 96.6158H72.5452C71.8999 98.037 70.56 100.276 69.506 100.276C68.7825 100.276 68.4922 99.6169 68.4922 98.6962C68.4922 96.446 70.5846 93.0091 72.3331 93.0091C73.1102 93.0091 73.4764 93.5745 73.4116 94.4437H73.425L74.689 90.6538C74.8989 90.0483 74.6622 89.8382 73.6885 89.8382L73.7667 89.5745C75.0172 89.5745 75.4236 89.5075 75.7139 89.2058L75.8725 89.2594L72.7417 98.6984C72.677 98.8817 72.5832 99.1856 72.5832 99.3554C72.5832 99.5521 72.6368 99.6839 72.8467 99.6839C73.3871 99.6839 73.9788 98.7744 74.4389 97.7755L74.4411 97.7733ZM72.6926 95.8136C72.8377 95.418 72.9941 94.9443 72.9941 94.4169C72.9941 93.865 72.8221 93.4963 72.3487 93.4963C70.9932 93.4963 69.2715 96.5622 69.2715 98.6046C69.2715 99.275 69.3899 99.6571 69.7315 99.6571C70.6002 99.6571 72.1522 97.3018 72.6904 95.8136H72.6926Z" fill="white"/>
<path d="M79.1403 97.3397H79.4038C78.7339 99.0514 77.7201 100.276 76.5634 100.276C75.6947 100.276 75.1699 99.6056 75.1699 98.4861C75.1699 96.3788 76.972 93.009 78.8009 93.009C79.4195 93.009 79.8013 93.4314 79.8013 94.0481C79.8013 95.4179 78.0126 96.8526 76.1435 97.1542C76.0252 97.628 75.9604 98.0883 75.9604 98.457C75.9604 99.2592 76.3289 99.695 76.8805 99.695C77.7089 99.695 78.5106 98.7073 79.1426 97.3397H79.1403ZM76.2329 96.7855C77.7715 96.4436 79.1537 95.3509 79.1537 94.0481C79.1537 93.666 79.0488 93.4157 78.6803 93.4157C77.6665 93.4157 76.6951 95.1654 76.2329 96.7855Z" fill="white"/>
<path d="M86.6643 89.2572L83.6117 98.6828C83.5447 98.8794 83.4666 99.1833 83.4666 99.3532C83.4666 99.5498 83.5201 99.6817 83.7301 99.6817C84.2705 99.6817 84.8622 98.7722 85.3222 97.7733H85.5991C85.1391 98.9063 84.2973 100.182 83.4018 100.182C82.8882 100.182 82.7051 99.8917 82.7051 99.4984C82.7051 99.2616 82.7966 98.9599 82.8882 98.6694L85.4674 90.6538C85.6773 90.0483 85.5455 89.8382 84.5719 89.8382L84.6501 89.5745C85.9118 89.5745 86.2423 89.4963 86.5035 89.2058L86.6621 89.2594L86.6643 89.2572Z" fill="white"/>
<path d="M91.7973 97.7734H92.0742C91.6142 98.9063 90.7724 100.182 89.8769 100.182C89.3633 100.182 89.1802 99.8918 89.1802 99.4985C89.1802 99.2616 89.3119 98.9711 89.4169 98.6829L90.1672 96.6159H90.0488C89.4035 98.0103 88.0636 100.223 86.9962 100.223C86.2459 100.223 85.9824 99.5901 85.9824 98.6963C85.9824 96.446 88.0748 93.0092 89.8233 93.0092C90.6004 93.0092 90.9689 93.5746 90.9019 94.4438H90.9421L91.3373 93.3511C91.6276 93.3511 91.9023 93.179 92.0474 92.9556L92.1926 93.0204L90.127 98.6941C90.06 98.8907 89.9417 99.1812 89.9417 99.351C89.9417 99.5477 89.9953 99.6795 90.2052 99.6795C90.7433 99.6795 91.3351 98.77 91.7973 97.7712V97.7734ZM90.1784 95.8136C90.3235 95.4181 90.4798 94.9444 90.4798 94.417C90.4798 93.865 90.3101 93.4963 89.8345 93.4963C88.479 93.4963 86.7573 96.5622 86.7573 98.6047C86.7573 99.2371 86.8756 99.5924 87.2173 99.5924C88.086 99.5924 89.6514 97.2751 90.1761 95.8136H90.1784Z" fill="white"/>
<path d="M99.176 89.2572L96.1234 98.6828C96.0564 98.8794 95.9783 99.1833 95.9783 99.3532C95.9783 99.5498 96.0319 99.6817 96.2418 99.6817C96.7822 99.6817 97.3739 98.7722 97.834 97.7733H98.1109C97.6508 98.9063 96.809 100.182 95.9135 100.182C95.3999 100.182 95.2168 99.8917 95.2168 99.4984C95.2168 99.2616 95.3084 98.9599 95.3999 98.6694L97.9791 90.6538C98.189 90.0483 98.0573 89.8382 97.0836 89.8382L97.1618 89.5745C98.4235 89.5745 98.754 89.4963 99.0153 89.2058L99.1738 89.2594L99.176 89.2572Z" fill="white"/>
<path d="M102.467 89.2572L99.4144 98.6828C99.3497 98.8794 99.2693 99.1833 99.2693 99.3532C99.2693 99.5498 99.3229 99.6817 99.5328 99.6817C100.071 99.6817 100.665 98.7722 101.125 97.7733H101.402C100.942 98.9063 100.1 100.182 99.2045 100.182C98.6909 100.182 98.5078 99.8917 98.5078 99.4984C98.5078 99.2616 98.5994 98.9599 98.6932 98.6694L101.272 90.6538C101.482 90.0483 101.351 89.8382 100.377 89.8382L100.455 89.5745C101.719 89.5745 102.047 89.4963 102.311 89.2058L102.469 89.2594L102.467 89.2572Z" fill="white"/>
<path d="M107.598 97.7734H107.875C107.415 98.9063 106.573 100.182 105.677 100.182C105.164 100.182 104.981 99.8918 104.981 99.4985C104.981 99.2616 105.112 98.9711 105.217 98.6829L105.968 96.6159H105.849C105.204 98.0103 103.864 100.223 102.799 100.223C102.049 100.223 101.785 99.5901 101.785 98.6963C101.785 96.446 103.878 93.0092 105.626 93.0092C106.403 93.0092 106.769 93.5746 106.705 94.4438H106.745L107.14 93.3511C107.43 93.3511 107.705 93.179 107.85 92.9556L107.995 93.0204L105.93 98.6941C105.863 98.8907 105.744 99.1812 105.744 99.351C105.744 99.5477 105.798 99.6795 106.008 99.6795C106.548 99.6795 107.14 98.77 107.6 97.7712L107.598 97.7734ZM105.981 95.8136C106.126 95.4181 106.283 94.9444 106.283 94.417C106.283 93.865 106.111 93.4963 105.637 93.4963C104.282 93.4963 102.56 96.5622 102.56 98.6047C102.56 99.2371 102.678 99.5924 103.02 99.5924C103.889 99.5924 105.454 97.2751 105.979 95.8136H105.981Z" fill="white"/>
<path d="M108.597 100.104L110.373 94.7073C110.478 94.3654 110.609 93.9319 110.609 93.7733C110.609 93.5766 110.529 93.523 110.411 93.523C109.964 93.523 109.292 94.3789 108.845 95.1677H108.568C109.109 94.1286 110.002 93.0358 110.83 93.0358C111.172 93.0358 111.344 93.3129 111.344 93.628C111.344 93.9051 111.212 94.2604 111.054 94.7073L110.185 97.1028H110.277C111.395 93.9297 112.606 93.009 113.553 93.009C113.829 93.009 113.975 93.1275 113.975 93.3375C113.975 93.628 113.751 93.9163 113.474 93.9163C113.251 93.9163 113.133 93.7844 112.869 93.7844C112.159 93.7844 110.976 95.2325 109.357 100.102H108.593L108.597 100.104Z" fill="white"/>
<path d="M121.584 97.7734H121.861C121.401 98.9063 120.559 100.182 119.664 100.182C119.15 100.182 118.967 99.8918 118.967 99.4985C118.967 99.2616 119.099 98.9711 119.204 98.6829L119.954 96.6159H119.836C119.19 98.0103 117.85 100.223 116.783 100.223C116.033 100.223 115.771 99.5901 115.771 98.6963C115.771 96.446 117.864 93.0092 119.612 93.0092C120.389 93.0092 120.758 93.5746 120.691 94.4438H120.731L121.126 93.3511C121.417 93.3511 121.691 93.179 121.836 92.9556L121.982 93.0204L119.916 98.6941C119.851 98.8907 119.733 99.1812 119.733 99.351C119.733 99.5477 119.787 99.6795 119.996 99.6795C120.537 99.6795 121.129 98.77 121.589 97.7712L121.584 97.7734ZM119.965 95.8136C120.11 95.4181 120.267 94.9444 120.267 94.417C120.267 93.865 120.097 93.4963 119.621 93.4963C118.266 93.4963 116.544 96.5622 116.544 98.6047C116.544 99.2371 116.662 99.5924 117.004 99.5924C117.873 99.5924 119.438 97.2751 119.963 95.8136H119.965Z" fill="white"/>
<path d="M124.994 98.341C124.994 95.9835 126.796 92.9824 128.534 92.9824C129.099 92.9824 129.521 93.3511 129.521 94.0215C129.521 94.6919 129.125 95.4695 128.692 95.4695C128.469 95.4695 128.337 95.2841 128.337 95.074C128.337 94.5869 129.047 94.5869 129.047 93.9031C129.047 93.6662 128.915 93.4159 128.482 93.4159C127.008 93.4159 125.785 96.3522 125.785 98.2069C125.785 99.0628 126.035 99.6818 126.613 99.6818C127.363 99.6818 128.165 98.7611 128.77 97.5366H129.02C128.31 99.2483 127.323 100.274 126.35 100.274C125.481 100.274 124.994 99.5097 124.994 98.3388V98.341Z" fill="white"/>
<path d="M135.387 97.7734H135.664C135.204 98.9063 134.362 100.182 133.466 100.182C132.953 100.182 132.77 99.8918 132.77 99.4985C132.77 99.2616 132.901 98.9711 133.006 98.6829L133.757 96.6159H133.638C132.993 98.0103 131.653 100.223 130.588 100.223C129.838 100.223 129.574 99.5901 129.574 98.6963C129.574 96.446 131.667 93.0092 133.415 93.0092C134.192 93.0092 134.558 93.5746 134.494 94.4438H134.534L134.929 93.3511C135.219 93.3511 135.494 93.179 135.639 92.9556L135.784 93.0204L133.719 98.6941C133.652 98.8907 133.533 99.1812 133.533 99.351C133.533 99.5477 133.587 99.6795 133.797 99.6795C134.337 99.6795 134.929 98.77 135.389 97.7712L135.387 97.7734ZM133.768 95.8136C133.913 95.4181 134.069 94.9444 134.069 94.417C134.069 93.865 133.897 93.4963 133.424 93.4963C132.069 93.4963 130.347 96.5622 130.347 98.6047C130.347 99.2371 130.465 99.5924 130.807 99.5924C131.676 99.5924 133.241 97.2751 133.766 95.8136H133.768Z" fill="white"/>
<path d="M141.99 97.7733H142.267C141.807 98.9063 140.965 100.182 140.069 100.182C139.556 100.182 139.373 99.8917 139.373 99.4984C139.373 99.2616 139.478 98.9711 139.569 98.6828L140.253 96.6158H140.094C139.449 98.037 138.109 100.276 137.055 100.276C136.331 100.276 136.041 99.6169 136.041 98.6962C136.041 96.446 138.133 93.0091 139.882 93.0091C140.659 93.0091 141.027 93.5745 140.96 94.4437H140.974L142.238 90.6538C142.448 90.0483 142.211 89.8382 141.237 89.8382L141.316 89.5745C142.566 89.5745 142.972 89.5075 143.263 89.2058L143.421 89.2594L140.291 98.6984C140.226 98.8817 140.132 99.1856 140.132 99.3554C140.132 99.5521 140.186 99.6839 140.396 99.6839C140.936 99.6839 141.528 98.7744 141.988 97.7755L141.99 97.7733ZM140.241 95.8136C140.387 95.418 140.543 94.9443 140.543 94.4169C140.543 93.865 140.373 93.4963 139.898 93.4963C138.542 93.4963 136.82 96.5622 136.82 98.6046C136.82 99.275 136.939 99.6571 137.28 99.6571C138.149 99.6571 139.701 97.3018 140.239 95.8136H140.241Z" fill="white"/>
<path d="M148.463 97.7734H148.74C148.28 98.9063 147.438 100.182 146.543 100.182C146.029 100.182 145.846 99.8918 145.846 99.4985C145.846 99.2616 145.978 98.9711 146.083 98.6829L146.833 96.6159H146.715C146.069 98.0103 144.729 100.223 143.664 100.223C142.914 100.223 142.65 99.5901 142.65 98.6963C142.65 96.446 144.743 93.0092 146.491 93.0092C147.268 93.0092 147.635 93.5746 147.57 94.4438H147.61L148.005 93.3511C148.296 93.3511 148.57 93.179 148.715 92.9556L148.861 93.0204L146.795 98.6941C146.728 98.8907 146.61 99.1812 146.61 99.351C146.61 99.5477 146.663 99.6795 146.873 99.6795C147.414 99.6795 148.005 98.77 148.465 97.7712L148.463 97.7734ZM146.846 95.8136C146.991 95.4181 147.148 94.9444 147.148 94.417C147.148 93.865 146.976 93.4963 146.502 93.4963C145.147 93.4963 143.425 96.5622 143.425 98.6047C143.425 99.2371 143.544 99.5924 143.885 99.5924C144.754 99.5924 146.319 97.2751 146.844 95.8136H146.846Z" fill="white"/>
<path d="M157.765 94.6537C157.765 96.6157 155.977 100.209 154.266 100.209C153.753 100.209 153.306 99.9319 153.069 99.485L152.346 101.802C152.096 102.578 152.174 102.723 153.373 102.723L153.228 103H150.414L150.492 102.723C151.044 102.723 151.361 102.591 151.611 101.802L153.991 94.2068C153.531 95.0493 152.781 95.9967 151.899 96.5509L151.754 96.3409C153.016 95.5252 153.989 93.9722 154.425 92.8258L154.78 91.6929H155.503L154.07 96.0236H154.161C154.807 94.5755 155.753 93.0091 156.754 93.0091C157.346 93.0091 157.768 93.561 157.768 94.6537H157.765ZM156.988 94.799C156.988 93.9699 156.765 93.6415 156.437 93.6415C155.517 93.6415 154.056 96.3654 153.556 97.9453L153.397 98.4727C153.384 99.2503 153.726 99.7889 154.239 99.7889C155.568 99.7889 156.988 96.6559 156.988 94.8012V94.799Z" fill="white"/>
<path d="M161.858 89.2572L158.805 98.6828C158.738 98.8794 158.66 99.1833 158.66 99.3532C158.66 99.5498 158.714 99.6817 158.923 99.6817C159.464 99.6817 160.056 98.7722 160.516 97.7733H160.792C160.332 98.9063 159.491 100.182 158.595 100.182C158.082 100.182 157.898 99.8917 157.898 99.4984C157.898 99.2616 157.99 98.9599 158.082 98.6694L160.661 90.6538C160.871 90.0483 160.739 89.8382 159.765 89.8382L159.843 89.5745C161.105 89.5745 161.436 89.4963 161.697 89.2058L161.855 89.2594L161.858 89.2572Z" fill="white"/>
<path d="M166.989 97.7734H167.266C166.806 98.9063 165.964 100.182 165.068 100.182C164.555 100.182 164.372 99.8918 164.372 99.4985C164.372 99.2616 164.503 98.9711 164.608 98.6829L165.359 96.6159H165.24C164.595 98.0103 163.255 100.223 162.188 100.223C161.437 100.223 161.174 99.5901 161.174 98.6963C161.174 96.446 163.266 93.0092 165.015 93.0092C165.792 93.0092 166.16 93.5746 166.093 94.4438H166.133L166.529 93.3511C166.819 93.3511 167.094 93.179 167.239 92.9556L167.384 93.0204L165.318 98.6941C165.251 98.8907 165.133 99.1812 165.133 99.351C165.133 99.5477 165.187 99.6795 165.397 99.6795C165.935 99.6795 166.526 98.77 166.989 97.7712V97.7734ZM165.372 95.8136C165.517 95.4181 165.673 94.9444 165.673 94.417C165.673 93.865 165.504 93.4963 165.028 93.4963C163.673 93.4963 161.951 96.5622 161.951 98.6047C161.951 99.2371 162.069 99.5924 162.411 99.5924C163.28 99.5924 164.845 97.2751 165.37 95.8136H165.372Z" fill="white"/>
<path d="M168.727 98.6024C168.66 98.8258 168.568 99.1163 168.568 99.313C168.568 99.523 168.622 99.6549 168.845 99.6549C169.464 99.6549 170.252 98.6672 170.779 97.5476H171.069C170.529 98.8504 169.517 100.18 168.49 100.18C167.99 100.18 167.807 99.9029 167.807 99.4828C167.807 99.2325 167.898 98.904 167.992 98.6269L169.74 93.5208H168.702L168.807 93.2706C169.937 93.2438 170.346 92.7052 170.873 91.5723H171.174L170.582 93.179H171.898L171.793 93.5208H170.477L168.729 98.6024H168.727Z" fill="white"/>
<path d="M87.3371 74.2652V49.9727C87.3371 47.4766 87.8686 46.7414 91.7094 46.7414V45.7604H81.5735L73.2352 71.6082H73.1526L64.8545 45.7604H54.6784V46.7414C58.4791 46.7414 59.0106 47.4766 59.0106 49.9727V74.2652C59.0106 76.6294 58.5282 77.4137 55.2389 77.4897C52.5481 77.4137 51.8893 76.4171 50.6723 74.0216L47.1976 67.2328C45.7662 64.1245 44.6631 63.2239 43.0285 62.7346C47.8095 61.9994 51.6102 59.586 51.6102 54.1045C51.6102 48.9113 48.341 45.7604 41.0254 45.7604H28.4376V46.7414C32.2383 46.7414 32.7698 47.4766 32.7698 49.9727V74.2652C32.7698 76.5355 32.3209 77.3467 29.3755 77.4741C27.3121 77.3601 26.506 76.7009 25.7378 74.4685L16.0932 45.2666H13.8445L4.28024 74.4685C3.46294 76.9623 2.56301 77.4942 -0.0117188 77.4942V78.4752H9.22426V77.4942C5.34095 77.4942 5.30076 76.8394 6.07787 74.4685L8.08093 68.1289H19.0341L20.9948 74.4283C21.7317 76.8417 21.6893 77.4964 17.7256 77.4964V78.4774H41.7154V77.4964C37.9148 77.4964 37.3431 76.759 37.3431 74.2652V62.8955C38.0376 62.9357 38.7723 62.9781 39.5494 62.9781H40.1635L45.5161 73.816C47.4366 77.9478 48.1311 78.4774 53.5686 78.4774H65.0935V77.4964C61.2928 77.4964 60.7211 76.759 60.7211 74.2652V48.5403H60.8439L70.7744 79.2953H72.6122L82.5851 48.1314H82.7079V74.2652C82.7079 76.759 82.1765 77.4964 78.3758 77.4964V78.4774H91.6983V77.4964C87.8574 77.4964 87.3259 76.759 87.3259 74.2652H87.3371ZM8.62357 66.5356L13.5274 51.1593H13.6904L18.5138 66.5356H8.62357ZM39.6833 61.4228C38.866 61.4228 38.0889 61.3826 37.3543 61.2999V48.9492C37.3543 48.4576 37.5597 48.0487 38.0889 47.8453C38.9464 47.5593 39.8062 47.4364 40.6637 47.4364C44.6274 47.4364 46.9163 49.7671 46.9163 54.2252C46.9163 59.3782 43.8503 61.4228 39.6811 61.4228H39.6833Z" fill="white"/>
<path d="M104.217 45.146C96.616 45.146 91.5469 52.5895 91.5469 62.1179C91.5469 71.6463 96.6159 79.1322 104.34 79.1322C112.064 79.1322 117.011 71.729 117.011 62.1603C117.011 52.5917 111.944 45.146 104.217 45.146ZM103.36 46.9046C108.232 46.9046 111.171 53.8029 112.038 61.0766H96.3256C96.2743 60.2609 96.2475 59.4453 96.2475 58.6431C96.2475 52.6319 98.7396 46.9046 103.358 46.9046H103.36ZM105.198 77.3736C100.158 77.3736 97.2189 70.129 96.4507 62.605H112.187C112.268 63.6084 112.308 64.6117 112.308 65.5949C112.308 71.6887 109.856 77.3736 105.195 77.3736H105.198Z" fill="white"/>
<path d="M183.585 74.4707L173.941 45.2688H171.692L162.13 74.4707C161.4 76.7009 160.6 77.3601 158.6 77.4763C155.632 77.3467 155.183 76.5355 155.183 74.2674V49.9749C155.183 47.4788 155.715 46.7436 159.555 46.7436V45.7626H135.811V46.7436C139.612 46.7436 140.143 47.4788 140.143 49.9749V71.3221L124.367 45.7604H116.888V46.7414C118.646 46.7414 119.749 47.1101 121.138 49.3581L121.178 49.4408V74.2651C121.178 76.759 120.646 77.4964 116.846 77.4964V78.4774H127.43V77.4964C123.467 77.4964 122.895 76.759 122.895 74.2651V52.1805L139.569 78.8863H141.858V49.9727C141.858 47.4766 142.43 46.7414 146.231 46.7414C150.031 46.7414 150.563 47.4766 150.563 49.9727V74.2651C150.563 76.759 150.031 77.4964 146.231 77.4964V78.4774H167.074V77.4964C163.191 77.4964 163.151 76.8416 163.928 74.4707L165.931 68.1311H176.884L178.845 74.4305C179.582 76.8439 179.539 77.4986 175.575 77.4986V78.4796H188V77.4986C185.343 77.4986 184.445 76.9668 183.585 74.4729V74.4707ZM166.462 66.5356L171.366 51.1592H171.529L176.353 66.5356H166.462Z" fill="white"/>
<path d="M117.133 23.2869C117.048 23.0836 116.852 22.9584 116.624 22.9741C116.584 22.9785 112.821 23.2377 111.186 21.6154C113.705 20.3149 115.128 17.0188 115.19 16.8736C115.226 16.7909 115.228 16.706 115.222 16.6233C115.233 16.4535 115.166 16.2814 115.016 16.1764C114.9 16.0937 112.379 14.3373 109.873 14.411C110.367 12.5697 110.523 10.5295 110.336 8.29935C110.329 8.22114 110.302 8.15187 110.264 8.0893C110.24 8.04684 110.206 8.01109 110.173 7.97533C110.166 7.96863 110.161 7.95969 110.152 7.95299C110.094 7.90159 110.03 7.85914 109.951 7.83902C109.829 7.8055 107.774 7.28261 104.547 8.02226C104.635 7.17311 104.523 5.73402 103.543 3.57762C103.511 3.50834 103.462 3.45024 103.409 3.40332C103.315 3.30499 103.188 3.24243 103.042 3.24243H103.036C102.951 3.24243 101.048 3.29606 98.5137 5.57089C96.8344 2.25026 94.5254 0.248044 94.3781 0.122906C94.2709 0.0312868 94.1347 -0.00893623 94.0029 0.00447145C93.8712 -0.00670162 93.7349 0.0312868 93.6278 0.122906C93.4804 0.248044 91.1714 2.25026 89.4921 5.57089C86.9576 3.29606 85.055 3.24466 84.9701 3.24243H84.9634C84.8183 3.24243 84.691 3.30499 84.5994 3.40108C84.5436 3.44801 84.4945 3.50611 84.4632 3.57538C83.4829 5.73178 83.369 7.16864 83.4583 8.01779C80.2293 7.27814 78.1771 7.80103 78.0543 7.83455C77.9136 7.87254 77.8042 7.9664 77.7417 8.08483C77.7037 8.1474 77.6769 8.21667 77.6702 8.29488C77.4827 10.525 77.639 12.5652 78.1325 14.4066C75.627 14.3328 73.1058 16.0892 72.9897 16.1719C72.8401 16.2769 72.7753 16.449 72.7843 16.6188C72.7753 16.7015 72.7798 16.7864 72.8155 16.8691C72.8781 17.0166 74.3005 20.3126 76.8194 21.6109C75.1848 23.2333 71.4221 22.9718 71.3819 22.9696C71.1541 22.9539 70.9554 23.0791 70.8728 23.2824C70.7879 23.4858 70.846 23.7204 71.0112 23.8634C75.6381 27.8254 79.977 29.088 83.6258 29.088C89.0477 29.088 92.94 26.3103 94.0051 25.4612C95.0681 26.3103 98.9603 29.088 104.384 29.088C108.033 29.088 112.374 27.8254 116.999 23.8634C117.167 23.7204 117.222 23.4858 117.138 23.2824L117.133 23.2869ZM114.101 16.7976C113.676 17.6601 112.368 20.0132 110.458 20.8333C109.427 19.8121 108.315 19.316 107.571 19.0836C108.422 17.9909 109.083 16.7797 109.552 15.4546C111.334 15.2401 113.332 16.3261 114.101 16.7976ZM109.344 8.75745C109.625 12.9876 108.589 16.4602 106.254 19.0769C102.904 22.8333 97.6875 23.9104 95.3003 24.2143C98.7839 20.2277 100.443 16.0758 100.229 11.8502C100.211 11.4881 100.175 11.1351 100.133 10.7865C104.764 8.3217 108.279 8.58985 109.344 8.75521V8.75745ZM102.745 4.3061C103.73 6.60775 103.576 7.87254 103.46 8.31053C102.39 8.62784 101.216 9.09041 99.9607 9.73398C99.7307 8.58315 99.3824 7.51501 98.9626 6.54295C100.731 4.88263 102.151 4.42677 102.745 4.3061ZM99.2127 11.915C99.4203 16.0691 97.6629 20.1786 93.9984 24.1405C90.334 20.1808 88.5765 16.0691 88.7842 11.915C89.0656 6.29267 92.9109 2.21003 93.9984 1.162C95.0859 2.2078 98.9313 6.29044 99.2127 11.915ZM85.2537 4.3061C85.8477 4.42677 87.268 4.88263 89.0366 6.54295C88.6167 7.51501 88.2661 8.58315 88.0384 9.73398C86.7834 9.09041 85.6088 8.62784 84.5392 8.31053C84.4253 7.87701 84.2667 6.61222 85.2537 4.3061ZM87.8664 10.7887C87.8218 11.1373 87.7883 11.4904 87.7704 11.8524C87.757 12.1339 87.7503 12.4155 87.7525 12.6971C87.7525 12.7842 87.7592 12.8714 87.7615 12.9563C87.7659 13.1507 87.7704 13.3451 87.7838 13.5373C87.7905 13.6423 87.8039 13.7473 87.8128 13.8524C87.8285 14.0267 87.8419 14.2032 87.8642 14.3775C87.8776 14.4915 87.8999 14.6054 87.9156 14.7194C87.9401 14.8848 87.9647 15.0501 87.9937 15.2155C88.016 15.3339 88.0428 15.4523 88.0696 15.5708C88.1031 15.7294 88.1366 15.8903 88.1746 16.049C88.2036 16.1697 88.2393 16.2926 88.2728 16.4132C88.3153 16.5697 88.3555 16.7238 88.4046 16.8803C88.4426 17.0032 88.485 17.1261 88.5274 17.2512C88.5788 17.4032 88.6279 17.5574 88.6837 17.7093C88.7306 17.8344 88.7798 17.9596 88.8289 18.0847C88.8892 18.2344 88.9472 18.3842 89.012 18.5339C89.0656 18.6613 89.1259 18.7864 89.1839 18.9138C89.2509 19.0612 89.3179 19.2087 89.3894 19.3562C89.4519 19.4836 89.5189 19.611 89.5859 19.7383C89.6618 19.8836 89.7355 20.0288 89.8159 20.1741C89.8874 20.3037 89.9611 20.4311 90.037 20.5584C90.1196 20.7015 90.2045 20.8445 90.2915 20.9875C90.3719 21.1171 90.4546 21.2467 90.5372 21.3741C90.6287 21.5149 90.7203 21.6556 90.8163 21.7964C90.9034 21.926 90.995 22.0556 91.0865 22.1852C91.1848 22.326 91.2853 22.4646 91.3902 22.6053C91.4862 22.735 91.5845 22.8623 91.685 22.9919C91.7922 23.1305 91.9016 23.269 92.0132 23.4076C92.1182 23.5372 92.2232 23.6646 92.3326 23.7942C92.4487 23.9305 92.5648 24.069 92.6832 24.2053C92.6854 24.2098 92.6899 24.212 92.6921 24.2165C90.3049 23.9126 85.0907 22.8333 81.7411 19.0791C79.4053 16.4602 78.3692 12.9898 78.6505 8.75745C79.7157 8.59209 83.2306 8.3217 87.862 10.7887H87.8664ZM73.8986 16.7976C74.6645 16.3238 76.6609 15.2378 78.4473 15.4546C78.9163 16.7819 79.5773 17.9931 80.4281 19.0836C79.6845 19.316 78.5702 19.8121 77.5407 20.8333C75.6292 20.0132 74.3229 17.6579 73.8986 16.7976ZM72.7731 23.993C74.2938 23.9104 76.6006 23.5305 77.7997 22.0534C79.0279 20.545 80.5755 20.0713 81.1605 19.9417C84.7982 23.8657 90.162 24.9472 92.6251 25.24C89.9544 27.1304 82.1967 31.2645 72.7731 23.993ZM95.3762 25.2422C97.8416 24.9472 103.203 23.8657 106.841 19.9439C107.428 20.0758 108.973 20.5473 110.202 22.0556C111.401 23.5305 113.71 23.9126 115.228 23.9953C105.807 31.2667 98.047 27.1349 95.3762 25.2422Z" fill="white"/>
</g>
<defs>
<clipPath id="clip0_516_2087">
<rect width="188" height="103" fill="white"/>
</clipPath>
</defs>
</svg>
