<svg width="155" height="73" viewBox="0 0 155 73" fill="none" xmlns="http://www.w3.org/2000/svg">
<path d="M131.108 0C123.777 0 117.237 9.77002 112.96 25.0472C108.683 9.77002 102.144 0 94.8129 0C81.9253 0 71.4766 32.5055 71.4766 72.5965H81.8475C81.8475 35.3686 87.6515 5.18193 94.8129 5.18193C101.974 5.18193 107.778 33.0428 107.778 67.4075H118.149C118.149 33.0428 123.953 5.18193 131.115 5.18193C138.276 5.18193 144.08 35.3616 144.08 72.5965H154.451C154.437 32.5055 143.995 0 131.108 0Z" fill="#FFBC0D"/>
<path fill-rule="evenodd" clip-rule="evenodd" d="M4.59966 18.4372L0.725586 53.0635H9.66848L11.7328 31.7208L17.9327 50.5326H23.6661L29.8165 31.9258L31.8313 53.0635H41.0782L37.2041 18.4372H28.1623L20.8807 40.19L13.6415 18.4372H4.59966ZM44.9097 57.9203L43.0999 63.2931C43.8563 63.7102 44.7329 64.0283 45.7439 64.2475C46.7407 64.4737 47.8435 64.5868 49.0524 64.5868C51.3924 64.5868 53.3931 63.8233 55.0473 62.3104C56.7016 60.7976 58.1508 58.4505 59.388 55.2834L70.4447 27.0125H61.9189L57.1116 43.449L52.1488 27.0125H43.0504L53.1244 52.6464L52.1418 54.9228C51.4843 56.4074 50.841 57.3901 50.2047 57.8708C49.5685 58.3515 48.8545 58.5919 48.0627 58.5919C47.0305 58.5919 45.9772 58.3657 44.9097 57.9203Z" fill="white"/>
</svg>
